<mxfile host="app.diagrams.net" modified="2022-03-07T06:33:37.904Z" agent="5.0 (Windows NT 10.0; Win64; x64) AppleWebKit/537.36 (KHTML, like Gecko) Chrome/99.0.4844.51 Safari/537.36" etag="ljTgmaiQ5tkImD2d-Zxx" version="16.6.6" type="github">
  <diagram id="C5RBs43oDa-KdzZeNtuy" name="Page-1">
    <mxGraphModel dx="1038" dy="547" grid="1" gridSize="10" guides="1" tooltips="1" connect="1" arrows="1" fold="1" page="1" pageScale="1" pageWidth="827" pageHeight="1169" background="none" math="0" shadow="0">
      <root>
        <object label="" id="WIyWlLk6GJQsqaUBKTNV-0">
          <mxCell />
        </object>
        <mxCell id="WIyWlLk6GJQsqaUBKTNV-1" parent="WIyWlLk6GJQsqaUBKTNV-0" />
        <mxCell id="7xa6NlQf_jFmxJ6P_aAY-0" value="nav_msgs_Odometry" style="text;html=1;strokeColor=none;fillColor=none;align=center;verticalAlign=middle;whiteSpace=wrap;rounded=0;" vertex="1" parent="WIyWlLk6GJQsqaUBKTNV-1">
          <mxGeometry x="230" y="110" width="130" height="30" as="geometry" />
        </mxCell>
        <mxCell id="7xa6NlQf_jFmxJ6P_aAY-17" value="" style="edgeStyle=orthogonalEdgeStyle;rounded=0;orthogonalLoop=1;jettySize=auto;html=1;" edge="1" parent="WIyWlLk6GJQsqaUBKTNV-1" source="7xa6NlQf_jFmxJ6P_aAY-3" target="7xa6NlQf_jFmxJ6P_aAY-16">
          <mxGeometry relative="1" as="geometry" />
        </mxCell>
        <mxCell id="7xa6NlQf_jFmxJ6P_aAY-31" style="edgeStyle=orthogonalEdgeStyle;rounded=0;orthogonalLoop=1;jettySize=auto;html=1;entryX=0.75;entryY=0;entryDx=0;entryDy=0;startArrow=oval;startFill=1;" edge="1" parent="WIyWlLk6GJQsqaUBKTNV-1" target="7xa6NlQf_jFmxJ6P_aAY-6">
          <mxGeometry relative="1" as="geometry">
            <mxPoint x="610" y="150" as="sourcePoint" />
            <Array as="points">
              <mxPoint x="610" y="150" />
              <mxPoint x="405" y="150" />
            </Array>
          </mxGeometry>
        </mxCell>
        <mxCell id="7xa6NlQf_jFmxJ6P_aAY-3" value="Map" style="shape=process;whiteSpace=wrap;html=1;backgroundOutline=1;" vertex="1" parent="WIyWlLk6GJQsqaUBKTNV-1">
          <mxGeometry x="550" y="40" width="120" height="60" as="geometry" />
        </mxCell>
        <mxCell id="7xa6NlQf_jFmxJ6P_aAY-7" value="" style="edgeStyle=orthogonalEdgeStyle;rounded=0;orthogonalLoop=1;jettySize=auto;html=1;" edge="1" parent="WIyWlLk6GJQsqaUBKTNV-1" source="7xa6NlQf_jFmxJ6P_aAY-4" target="7xa6NlQf_jFmxJ6P_aAY-6">
          <mxGeometry relative="1" as="geometry" />
        </mxCell>
        <mxCell id="7xa6NlQf_jFmxJ6P_aAY-4" value="Roomba" style="ellipse;whiteSpace=wrap;html=1;" vertex="1" parent="WIyWlLk6GJQsqaUBKTNV-1">
          <mxGeometry x="315" y="30" width="120" height="80" as="geometry" />
        </mxCell>
        <mxCell id="7xa6NlQf_jFmxJ6P_aAY-21" value="" style="edgeStyle=orthogonalEdgeStyle;rounded=0;orthogonalLoop=1;jettySize=auto;html=1;strokeColor=default;exitX=0.5;exitY=1;exitDx=0;exitDy=0;" edge="1" parent="WIyWlLk6GJQsqaUBKTNV-1" source="7xa6NlQf_jFmxJ6P_aAY-6" target="7xa6NlQf_jFmxJ6P_aAY-20">
          <mxGeometry relative="1" as="geometry" />
        </mxCell>
        <mxCell id="7xa6NlQf_jFmxJ6P_aAY-35" style="edgeStyle=orthogonalEdgeStyle;rounded=0;orthogonalLoop=1;jettySize=auto;html=1;entryX=0;entryY=0.5;entryDx=0;entryDy=0;startArrow=oval;startFill=1;strokeColor=default;" edge="1" parent="WIyWlLk6GJQsqaUBKTNV-1" target="7xa6NlQf_jFmxJ6P_aAY-18">
          <mxGeometry relative="1" as="geometry">
            <mxPoint x="375" y="315" as="sourcePoint" />
          </mxGeometry>
        </mxCell>
        <mxCell id="7xa6NlQf_jFmxJ6P_aAY-6" value="Localizer" style="whiteSpace=wrap;html=1;" vertex="1" parent="WIyWlLk6GJQsqaUBKTNV-1">
          <mxGeometry x="315" y="200" width="120" height="60" as="geometry" />
        </mxCell>
        <mxCell id="7xa6NlQf_jFmxJ6P_aAY-10" style="edgeStyle=orthogonalEdgeStyle;rounded=0;orthogonalLoop=1;jettySize=auto;html=1;entryX=0.25;entryY=0;entryDx=0;entryDy=0;startArrow=oval;startFill=1;" edge="1" parent="WIyWlLk6GJQsqaUBKTNV-1" target="7xa6NlQf_jFmxJ6P_aAY-6">
          <mxGeometry relative="1" as="geometry">
            <mxPoint x="140" y="150" as="sourcePoint" />
            <Array as="points">
              <mxPoint x="140" y="150" />
              <mxPoint x="345" y="150" />
            </Array>
          </mxGeometry>
        </mxCell>
        <mxCell id="7xa6NlQf_jFmxJ6P_aAY-15" value="" style="edgeStyle=orthogonalEdgeStyle;rounded=0;orthogonalLoop=1;jettySize=auto;html=1;" edge="1" parent="WIyWlLk6GJQsqaUBKTNV-1" source="7xa6NlQf_jFmxJ6P_aAY-9" target="7xa6NlQf_jFmxJ6P_aAY-14">
          <mxGeometry relative="1" as="geometry" />
        </mxCell>
        <mxCell id="7xa6NlQf_jFmxJ6P_aAY-9" value="2D LIDER" style="ellipse;whiteSpace=wrap;html=1;" vertex="1" parent="WIyWlLk6GJQsqaUBKTNV-1">
          <mxGeometry x="80" y="30" width="120" height="80" as="geometry" />
        </mxCell>
        <mxCell id="7xa6NlQf_jFmxJ6P_aAY-23" style="edgeStyle=orthogonalEdgeStyle;rounded=0;orthogonalLoop=1;jettySize=auto;html=1;exitX=0.5;exitY=1;exitDx=0;exitDy=0;entryX=0.25;entryY=0;entryDx=0;entryDy=0;" edge="1" parent="WIyWlLk6GJQsqaUBKTNV-1" source="7xa6NlQf_jFmxJ6P_aAY-14" target="7xa6NlQf_jFmxJ6P_aAY-20">
          <mxGeometry relative="1" as="geometry">
            <Array as="points">
              <mxPoint x="140" y="370" />
              <mxPoint x="345" y="370" />
            </Array>
          </mxGeometry>
        </mxCell>
        <mxCell id="7xa6NlQf_jFmxJ6P_aAY-14" value="Local Map" style="whiteSpace=wrap;html=1;" vertex="1" parent="WIyWlLk6GJQsqaUBKTNV-1">
          <mxGeometry x="80" y="200" width="120" height="60" as="geometry" />
        </mxCell>
        <mxCell id="7xa6NlQf_jFmxJ6P_aAY-19" value="" style="edgeStyle=orthogonalEdgeStyle;rounded=0;orthogonalLoop=1;jettySize=auto;html=1;" edge="1" parent="WIyWlLk6GJQsqaUBKTNV-1" source="7xa6NlQf_jFmxJ6P_aAY-16" target="7xa6NlQf_jFmxJ6P_aAY-18">
          <mxGeometry relative="1" as="geometry" />
        </mxCell>
        <mxCell id="7xa6NlQf_jFmxJ6P_aAY-16" value="Global Path Planner" style="whiteSpace=wrap;html=1;" vertex="1" parent="WIyWlLk6GJQsqaUBKTNV-1">
          <mxGeometry x="550" y="180" width="120" height="60" as="geometry" />
        </mxCell>
        <mxCell id="7xa6NlQf_jFmxJ6P_aAY-22" style="edgeStyle=orthogonalEdgeStyle;rounded=0;orthogonalLoop=1;jettySize=auto;html=1;entryX=0.75;entryY=0;entryDx=0;entryDy=0;" edge="1" parent="WIyWlLk6GJQsqaUBKTNV-1" source="7xa6NlQf_jFmxJ6P_aAY-18" target="7xa6NlQf_jFmxJ6P_aAY-20">
          <mxGeometry relative="1" as="geometry">
            <Array as="points">
              <mxPoint x="610" y="370" />
              <mxPoint x="405" y="370" />
            </Array>
          </mxGeometry>
        </mxCell>
        <mxCell id="7xa6NlQf_jFmxJ6P_aAY-18" value="Local Goal Creator" style="whiteSpace=wrap;html=1;" vertex="1" parent="WIyWlLk6GJQsqaUBKTNV-1">
          <mxGeometry x="550" y="285" width="120" height="60" as="geometry" />
        </mxCell>
        <mxCell id="7xa6NlQf_jFmxJ6P_aAY-25" value="" style="edgeStyle=orthogonalEdgeStyle;rounded=0;orthogonalLoop=1;jettySize=auto;html=1;" edge="1" parent="WIyWlLk6GJQsqaUBKTNV-1" source="7xa6NlQf_jFmxJ6P_aAY-20" target="7xa6NlQf_jFmxJ6P_aAY-24">
          <mxGeometry relative="1" as="geometry" />
        </mxCell>
        <mxCell id="7xa6NlQf_jFmxJ6P_aAY-20" value="Local Path Planner" style="whiteSpace=wrap;html=1;" vertex="1" parent="WIyWlLk6GJQsqaUBKTNV-1">
          <mxGeometry x="315" y="410" width="120" height="60" as="geometry" />
        </mxCell>
        <mxCell id="7xa6NlQf_jFmxJ6P_aAY-24" value="Roomba" style="ellipse;whiteSpace=wrap;html=1;" vertex="1" parent="WIyWlLk6GJQsqaUBKTNV-1">
          <mxGeometry x="315" y="530" width="120" height="60" as="geometry" />
        </mxCell>
        <mxCell id="7xa6NlQf_jFmxJ6P_aAY-27" value="geometry_msgs/PoseStamped" style="text;html=1;strokeColor=none;fillColor=none;align=center;verticalAlign=middle;whiteSpace=wrap;rounded=0;" vertex="1" parent="WIyWlLk6GJQsqaUBKTNV-1">
          <mxGeometry x="240" y="270" width="60" height="30" as="geometry" />
        </mxCell>
        <mxCell id="7xa6NlQf_jFmxJ6P_aAY-28" value="sensor_msgs/LasorScan" style="text;html=1;strokeColor=none;fillColor=none;align=center;verticalAlign=middle;whiteSpace=wrap;rounded=0;" vertex="1" parent="WIyWlLk6GJQsqaUBKTNV-1">
          <mxGeometry x="40" y="110" width="60" height="30" as="geometry" />
        </mxCell>
        <mxCell id="7xa6NlQf_jFmxJ6P_aAY-29" value="nav_msgs/OccupanyGrid" style="text;html=1;strokeColor=none;fillColor=none;align=center;verticalAlign=middle;whiteSpace=wrap;rounded=0;" vertex="1" parent="WIyWlLk6GJQsqaUBKTNV-1">
          <mxGeometry x="490" y="110" width="60" height="30" as="geometry" />
        </mxCell>
        <mxCell id="7xa6NlQf_jFmxJ6P_aAY-30" value="nav_msgs/Path" style="text;html=1;strokeColor=none;fillColor=none;align=center;verticalAlign=middle;whiteSpace=wrap;rounded=0;" vertex="1" parent="WIyWlLk6GJQsqaUBKTNV-1">
          <mxGeometry x="530" y="240" width="60" height="30" as="geometry" />
        </mxCell>
        <mxCell id="7xa6NlQf_jFmxJ6P_aAY-36" value="geometry_msgs/PoseStamped" style="text;html=1;align=center;verticalAlign=middle;resizable=0;points=[];autosize=1;strokeColor=none;fillColor=none;" vertex="1" parent="WIyWlLk6GJQsqaUBKTNV-1">
          <mxGeometry x="430" y="345" width="180" height="20" as="geometry" />
        </mxCell>
        <mxCell id="7xa6NlQf_jFmxJ6P_aAY-37" value="nav_msgs/OccupanyGrid" style="text;html=1;strokeColor=none;fillColor=none;align=center;verticalAlign=middle;whiteSpace=wrap;rounded=0;" vertex="1" parent="WIyWlLk6GJQsqaUBKTNV-1">
          <mxGeometry x="40" y="270" width="60" height="30" as="geometry" />
        </mxCell>
        <mxCell id="7xa6NlQf_jFmxJ6P_aAY-38" value="roomba_500driver_meiji/RoombaCtrl" style="text;html=1;align=center;verticalAlign=middle;resizable=0;points=[];autosize=1;strokeColor=none;fillColor=none;" vertex="1" parent="WIyWlLk6GJQsqaUBKTNV-1">
          <mxGeometry x="160" y="490" width="210" height="20" as="geometry" />
        </mxCell>
      </root>
    </mxGraphModel>
  </diagram>
</mxfile>
